<?xml version="1.0" standalone="no"?>
<!DOCTYPE svg PUBLIC "-//W3C//DTD SVG 20010904//EN"
 "http://www.w3.org/TR/2001/REC-SVG-20010904/DTD/svg10.dtd">
<svg version="1.0" xmlns="http://www.w3.org/2000/svg"
 width="32.000000pt" height="32.000000pt" viewBox="0 0 32.000000 32.000000"
 preserveAspectRatio="xMidYMid meet">
<metadata>
Created by potrace 1.10, written by Peter Selinger 2001-2011
</metadata>
<g transform="translate(0.000000,32.000000) scale(0.100000,-0.100000)"
fill="#000000" stroke="none">
<path d="M50 160 l0 -140 110 0 110 0 0 140 0 140 -110 0 -110 0 0 -140z m200
0 l0 -120 -90 0 -90 0 0 120 0 120 90 0 90 0 0 -120z"/>
<path d="M95 250 c8 -13 122 -13 130 0 4 6 -20 10 -65 10 -45 0 -69 -4 -65
-10z"/>
<path d="M90 210 c0 -6 30 -10 71 -10 44 0 68 4 64 10 -3 6 -35 10 -71 10 -36
0 -64 -4 -64 -10z"/>
<path d="M90 160 c0 -6 30 -10 70 -10 40 0 70 4 70 10 0 6 -30 10 -70 10 -40
0 -70 -4 -70 -10z"/>
<path d="M90 110 c0 -6 30 -10 70 -10 40 0 70 4 70 10 0 6 -30 10 -70 10 -40
0 -70 -4 -70 -10z"/>
<path d="M95 70 c-4 -6 20 -10 65 -10 45 0 69 4 65 10 -8 13 -122 13 -130 0z"/>
</g>
</svg>
